<?xml version="1.0" encoding="utf-8"?>
<!-- Generator: Adobe Illustrator 16.0.0, SVG Export Plug-In . SVG Version: 6.00 Build 0)  -->
<!DOCTYPE svg PUBLIC "-//W3C//DTD SVG 1.1//EN" "http://www.w3.org/Graphics/SVG/1.1/DTD/svg11.dtd">
<svg version="1.1" id="photo.jpg_xA0_Изображение_1_"
	 xmlns="http://www.w3.org/2000/svg" xmlns:xlink="http://www.w3.org/1999/xlink" x="0px" y="0px" width="85px" height="85px"
	 viewBox="0 0 85 85" enable-background="new 0 0 85 85" xml:space="preserve" fill="transparent">
<g>
	<path fill-rule="evenodd" clip-rule="evenodd" d="M43,86c-13.2,0-26.3-0.1-39.5,0.1c-2.1,0-2.6-0.4-2.6-2.6C1,56.8,1,30.2,0.9,3.5
		c0-2.1,0.4-2.6,2.6-2.6c26.7,0.1,53.3,0.1,80,0c2.1,0,2.6,0.4,2.6,2.6c-0.1,26.7-0.1,53.3,0,80c0,2.1-0.4,2.6-2.6,2.6
		C70,85.9,56.5,86,43,86z"/>
	<path fill-rule="evenodd" clip-rule="evenodd" fill="#FEFEFE" d="M13.8,71.4C-1.9,54.9-1.3,29.5,14.7,13.8
		C30.5-1.8,56.1-2.1,72,13.2c16.7,16,17.4,41.1,1.2,58.6c-0.8-4.6-1.9-8.8-6.3-11.1c-1.5-0.8-0.7-1.9,0.1-2.9c5.4-6.7,3.6-13.4,0-20
		c-1.8-3.4-4.3-6.4-2.7-10.9c-7.8,1.5-14.2,6-21.5,5.9c-7.3-0.1-13.8-4.5-21.3-5.9c0.8,4.5-1.2,7.8-3,11.4
		c-3.3,6.6-4.3,13.3,0.9,19.6c1,1.2,1.4,2.2-0.2,3.2C15.6,63.4,14.3,67,13.8,71.4z"/>
	<path fill-rule="evenodd" clip-rule="evenodd" fill="#FBFBFB" d="M47.5,55.1c-1.1,2.2-1.7,4.7-4,6.4c-2.5-1.3-2.8-4.2-4.1-6.4
		c-3.4,2.8-7.2,4.2-11.5,2.2c-4.5-2.2-6.1-7.6-3.8-12.4c0.9-2,4.2-3.3,1.9-6.4c-0.5-0.7,1-0.8,1.8-0.9c8-0.3,12.6,3.4,14.2,11.6
		c0.2,0.9,0.3,1.5,1.4,1.5c1.2,0,1.3-0.6,1.5-1.4c1.9-8.4,5.4-11.3,13.7-11.6c1.7-0.1,3.3-0.3,1.7,2.2c-0.7,1,0.4,1.8,0.9,2.6
		c3.6,6,3.6,10-0.1,13.4C57.7,59.2,53.1,58.9,47.5,55.1z"/>
	<path fill-rule="evenodd" clip-rule="evenodd" fill="#4d4b47" d="M13.9,20.8c9.1-3,18.2-6,27.3-8.9c1.1-0.3,2.4-0.4,3.5,0
		c9.4,2.9,18.9,6,28.3,10.3c-9.4,3-18.8,6-28.3,8.9c-1.2,0.4-2.7,0.3-3.9-0.1c-9-2.8-17.9-5.8-26.8-8.7
		C13.9,21.8,13.9,21.3,13.9,20.8z"/>
	<path fill-rule="evenodd" clip-rule="evenodd" fill="#4d4b47" d="M30.9,41.8c0,3.4-0.9,6.9,3.1,7.9c3.4,0.8,4.5-2.2,5.7-4.8
		c1.7,4.7,0.2,8.4-4,10.2c-3.7,1.6-6.9,0.7-9-2.8C24.5,48.7,25.9,45.1,30.9,41.8z"/>
	<path fill-rule="evenodd" clip-rule="evenodd" fill="#4d4b47" d="M47.3,44.5c1.6,3.3,2.8,6,6.1,5.1c4-1.1,3.1-4.7,2.6-7.9
		c4.8,2.5,6.7,6.4,4.9,10.1c-1.7,3.4-4.6,4.7-8.3,3.7C48.1,54.2,46.3,50.8,47.3,44.5z"/>
</g>
</svg>
