<?xml version="1.0" encoding="utf-8"?>
<!-- Generator: Adobe Illustrator 16.0.0, SVG Export Plug-In . SVG Version: 6.00 Build 0)  -->
<!DOCTYPE svg PUBLIC "-//W3C//DTD SVG 1.1//EN" "http://www.w3.org/Graphics/SVG/1.1/DTD/svg11.dtd">
<svg version="1.1" id="Layer_36_xA0_Изображение_1_"
	 xmlns="http://www.w3.org/2000/svg" xmlns:xlink="http://www.w3.org/1999/xlink" x="0px" y="0px" width="162px" height="184px"
	 viewBox="0 0 162 184" enable-background="new 0 0 162 184" xml:space="preserve">
<path fill-rule="evenodd" clip-rule="evenodd" fill="transparent" d="M1,93.1c0-29.5,0-59,0-88.4c0-2.5-0.2-3.8,3.3-3.8
	C56.1,1.1,107.9,1,159.7,0.9c2.7,0,3.4,0.4,3.4,3.3c-0.1,59.3-0.1,118.6,0,177.9c0,2.7-0.8,3-3.1,3C108,185,56,185,4.1,185.1
	c-3.2,0-3.1-1.2-3.1-3.5C1,152.1,1,122.6,1,93.1z"/>
<path fill-rule="evenodd" clip-rule="evenodd" fill="#a7d2ed" d="M78.9,148.3c0,9.2-0.1,18.3,0.1,27.5c0.1,3.2-0.9,4.4-4.2,4.3
	c-18.6-0.1-37.3-0.1-55.9,0c-3.1,0-4-1.1-4-4.1c0.1-18.6,0.1-37.3,0-55.9c0-3,0.8-4.1,4-4.1c18.8,0.1,37.6,0.1,56.4,0
	c2.9,0,3.7,1.1,3.7,3.8C78.9,129.3,78.9,138.8,78.9,148.3z"/>
<path fill-rule="evenodd" clip-rule="evenodd" fill="#a7d2ed" d="M149.1,148.3c0,9.2-0.1,18.3,0.1,27.5c0.1,3.2-0.9,4.3-4.2,4.3
	c-18.7-0.1-37.3-0.1-56,0c-3.1,0-4-1.1-4-4.1c0.1-18.7,0.1-37.3,0-56c0-3,0.9-4.1,4-4.1c18.7,0.1,37.3,0.1,56,0
	c3.3,0,4.3,1.1,4.2,4.3C149,129.6,149.1,138.9,149.1,148.3z"/>
<path fill-rule="evenodd" clip-rule="evenodd" fill="#f9bf3b" d="M60.1,6c10.3,0.5,17.8,7.6,24.7,15.4c2.2,2.5,3.4,6.9,6.3,7.2
	c2.4,0.2,5.1-3.2,7.7-4.9c9.8-6.5,20.3-10,32.1-6.2c5.2,1.7,9.5,4.7,13.1,8.8c5.6,6.3,5.4,14.6-0.4,20.7c-4.1,4.4-9.4,6.8-14.9,8.9
	c-14.6,5.5-29.9,7.8-45.2,9.8c-1.8,0.2-3.3-0.4-4.7-1.2c-11.3-6.5-22.2-13.6-31.1-23.3c-1.8-1.9-3.4-4.1-4.8-6.4
	c-3.8-5.9-5.6-12.3-1.7-18.8C45.1,9.4,51.2,6,60.1,6z"/>
<path fill-rule="evenodd" clip-rule="evenodd" fill="#a7d2ed" d="M42.1,112c-10.8,0-21.7-0.2-32.5,0.1c-3.8,0.1-4.8-1.2-4.7-4.8
	c0.2-11.7,0.2-23.3,0-35c0-3.2,0.8-4.4,4.2-4.4c22,0.1,44,0.1,65.9,0c3.1,0,4,1.1,4,4.1c-0.1,12-0.2,24,0,36
	c0.1,3.5-1.4,4.1-4.5,4.1C63.8,112,53,112,42.1,112z"/>
<path fill-rule="evenodd" clip-rule="evenodd" fill="#a7d2ed" d="M121.8,112c-10.8,0-21.7-0.1-32.5,0.1c-3.2,0-4.4-0.9-4.3-4.2
	c0.2-12,0.2-24,0-36c0-3.1,1.1-4,4.1-4c22,0.1,44,0.1,66,0c3,0,4.1,0.8,4.1,3.9c-0.1,12-0.2,24,0,36c0,3.3-1.1,4.3-4.3,4.2
	C143.7,111.9,132.8,112,121.8,112z"/>
<path fill-rule="evenodd" clip-rule="evenodd" fill="#efefef" d="M129.9,36.7c-9.5,5.2-19.7,7.5-30.5,9.5
	C107.6,34.2,122.1,29.7,129.9,36.7z"/>
<path fill-rule="evenodd" clip-rule="evenodd" fill="#efefef" d="M80.1,45.4c-8.9-5.7-16.3-11.2-22.3-18.4c-0.7-0.8-1.8-1.8-1.1-3.1
	c0.8-1.4,2.3-1.2,3.6-0.9c1.1,0.2,2.3,0.7,3.2,1.4C70.5,29.7,75.7,36.4,80.1,45.4z"/>
</svg>
