<?xml version="1.0" encoding="utf-8"?>
<!-- Generator: Adobe Illustrator 16.0.0, SVG Export Plug-In . SVG Version: 6.00 Build 0)  -->
<!DOCTYPE svg PUBLIC "-//W3C//DTD SVG 1.1//EN" "http://www.w3.org/Graphics/SVG/1.1/DTD/svg11.dtd">
<svg version="1.1" id="Rounded_Rectangle_1_copy_2_xA0_Изображение_1_"
	 xmlns="http://www.w3.org/2000/svg" xmlns:xlink="http://www.w3.org/1999/xlink" x="0px" y="0px" width="38px" height="27px"
	 viewBox="0 0 38 27" enable-background="new 0 0 38 27" xml:space="preserve" fill="transparent">
<path fill-rule="evenodd" clip-rule="evenodd" d="M20,28c-5.5,0-11-0.1-16.4,0c-1.9,0-2.7-0.1-2.7-2.4c0.2-7.5,0.2-14.9,0-22.4
	c0-2,0.6-2.2,2.4-2.2c11.1,0.1,22.2,0.1,33.4,0c2.5,0,2.4,0.9,2.4,2.7c-0.1,7.3-0.2,14.6,0,21.9c0.1,2.2-0.6,2.6-2.6,2.5
	C31,27.9,25.5,28,20,28z"/>
<path fill-rule="evenodd" clip-rule="evenodd" fill="#F8F8F8" d="M19.9,24.4c-5.3-2.3-9.9-5.5-14.2-9c-1.6-1.2,0.5-2.3,1.7-2.2
	c1.2,0.1,2.6,0.7,3.5,1.6c6.2,6.1,12.2,5.7,18.2-0.2c0.5-0.5,1.1-0.7,1.7-1.1c1.3-0.7,2.7-1,3.6,0.3c1.3,1.8-0.7,2.3-1.7,2.8
	C28.5,19.2,24.8,22.6,19.9,24.4z"/>
<path fill-rule="evenodd" clip-rule="evenodd" fill="#EEEEEE" d="M19.8,13.2c-3.8-1.5-7.1-4-10.4-6.5c-0.7-0.5,0-1.3,0.6-1.5
	c0.6-0.2,1.5-0.2,1.9,0.1c5.5,5.2,10.8,5,16.3-0.1c0.7-0.7,2-0.6,2.5,0.5c0.5,1.1-0.6,1.5-1.3,1.8C26.3,9.4,23.6,12.1,19.8,13.2z"/>
</svg>
