<svg width="34" height="20" viewBox="0 0 34 20" fill="none" xmlns="http://www.w3.org/2000/svg">
<line x1="4" y1="5" x2="6" y2="5" stroke="#FF8B38" stroke-width="2"/>
<line x1="18" y1="5" x2="20" y2="5" stroke="#FF8B38" stroke-width="2"/>
<line x1="9.5" y1="4" x2="9.5" y2="6" stroke="#FF8B38"/>
<line x1="14.5" y1="4" x2="14.5" y2="6" stroke="#FF8B38"/>
<line x1="23.5" y1="4" x2="23.5" y2="6" stroke="#FF8B38"/>
<line x1="28" y1="4" x2="28" y2="10" stroke="#FF8B38" stroke-width="2"/>
<line x1="25" y1="9.5" x2="27" y2="9.5" stroke="#FF8B38"/>
<line x1="20" y1="9.5" x2="22" y2="9.5" stroke="#FF8B38"/>
<line x1="16" y1="9.5" x2="17" y2="9.5" stroke="#FF8B38"/>
<line x1="11" y1="9.5" x2="13" y2="9.5" stroke="#FF8B38"/>
<line x1="4" y1="9.5" x2="8" y2="9.5" stroke="#FF8B38"/>
<line x1="4" y1="14.5" x2="6" y2="14.5" stroke="#FF8B38"/>
<line x1="9" y1="14.5" x2="24" y2="14.5" stroke="#FF8B38"/>
<line x1="27" y1="14.5" x2="29" y2="14.5" stroke="#FF8B38"/>
<line x1="10.5" y1="4" x2="10.5" y2="6" stroke="#FBBA8B"/>
<line x1="13.5" y1="4" x2="13.5" y2="6" stroke="#FBBA8B"/>
<line x1="22.5" y1="4" x2="22.5" y2="6" stroke="#FBBA8B"/>
<line x1="25" y1="10.5" x2="29" y2="10.5" stroke="#FBBA8B"/>
<line x1="20" y1="10.5" x2="22" y2="10.5" stroke="#FBBA8B"/>
<line x1="16" y1="10.5" x2="17" y2="10.5" stroke="#FBBA8B"/>
<line x1="11" y1="10.5" x2="13" y2="10.5" stroke="#FBBA8B"/>
<line x1="4" y1="10.5" x2="8" y2="10.5" stroke="#FBBA8B"/>
<line x1="4" y1="13.5" x2="6" y2="13.5" stroke="#FBBA8B"/>
<line x1="9" y1="13.5" x2="24" y2="13.5" stroke="#FBBA8B"/>
<line x1="27" y1="13.5" x2="29" y2="13.5" stroke="#FBBA8B"/>
<path d="M33 19H1V1H33V19Z" stroke="#FF8B38" stroke-width="2"/>
</svg>
