<svg width="18" height="27" viewBox="0 0 18 27" fill="none" xmlns="http://www.w3.org/2000/svg">
<path d="M4.5 24.5V18.5H12.5V24.5L9.5 26.5H7.5L4.5 24.5Z" fill="#FF8B38" stroke="#FF8B38"/>
<path d="M11.5 17.5V16.5H12.5V17.5H11.5Z" stroke="#FF8B38"/>
<path d="M4.5 17.5V16.5H5.5V17.5H4.5Z" stroke="#FF8B38"/>
<line x1="8" y1="5.5" x2="10" y2="5.5" stroke="#FBBA8B"/>
<line x1="11" y1="7.5" x2="13" y2="7.5" stroke="#FBBA8B"/>
<line x1="10" y1="6.5" x2="12" y2="6.5" stroke="#FDA465"/>
<path d="M5.50001 17C2.66668 13.6667 -1.69999 6.2 3.50001 3C8.70001 -0.200001 13 2 14.5 3.5C15.6667 5.16667 17.3 9.4 14.5 13C11.7 16.6 11.6667 17.5 12 17.5" stroke="#FF8B38" stroke-width="2"/>
</svg>
